<svg xmlns="http://www.w3.org/2000/svg" xmlns:xlink="http://www.w3.org/1999/xlink" width="500" zoomAndPan="magnify" viewBox="0 0 375 374.999991" height="500" preserveAspectRatio="xMidYMid meet" version="1.0"><defs><clipPath id="44760b08c2"><path d="M 53.8125 37.5 L 321.5625 37.5 L 321.5625 337.5 L 53.8125 337.5 Z M 53.8125 37.5 " clip-rule="nonzero"/></clipPath><clipPath id="17030318d0"><path d="M 151.675781 131.433594 L 264.175781 131.433594 L 264.175781 243.933594 L 151.675781 243.933594 Z M 151.675781 131.433594 " clip-rule="nonzero"/></clipPath></defs><g clip-path="url(#44760b08c2)"><path fill="#0097b2" d="M 203.773438 337.246094 C 121.082031 337.246094 53.8125 270.070312 53.8125 187.496094 C 53.8125 104.929688 121.082031 37.753906 203.773438 37.753906 C 245.453125 37.753906 285.589844 55.285156 313.890625 85.855469 L 321.5625 94.136719 L 263.496094 147.757812 L 255.820312 139.476562 C 242.242188 124.8125 223.753906 116.734375 203.773438 116.734375 C 164.695312 116.734375 132.90625 148.480469 132.90625 187.496094 C 132.90625 208.605469 142.285156 228.46875 158.632812 242 L 144.210938 259.378906 C 122.667969 241.542969 110.308594 215.347656 110.308594 187.496094 C 110.308594 136.035156 152.238281 94.171875 203.773438 94.171875 C 226.320312 94.171875 247.417969 101.960938 264.253906 116.320312 L 289.257812 93.230469 C 265.960938 72.199219 235.390625 60.320312 203.773438 60.320312 C 133.546875 60.320312 76.414062 117.367188 76.414062 187.496094 C 76.414062 257.625 133.546875 314.679688 203.773438 314.679688 C 230.585938 314.679688 256.246094 306.449219 277.972656 290.875 C 283.792969 286.703125 289.308594 281.996094 294.378906 276.871094 L 310.457031 292.722656 C 304.496094 298.753906 298 304.300781 291.144531 309.207031 C 265.558594 327.550781 235.347656 337.246094 203.773438 337.246094 " fill-opacity="1" fill-rule="nonzero"/></g><g clip-path="url(#17030318d0)"><path fill="#0097b2" d="M 207.925781 131.4375 C 176.910156 131.4375 151.675781 156.671875 151.675781 187.683594 C 151.675781 218.695312 176.910156 243.929688 207.925781 243.929688 C 238.941406 243.929688 264.175781 218.695312 264.175781 187.683594 C 264.175781 156.671875 238.941406 131.4375 207.925781 131.4375 Z M 249.972656 194.738281 C 247.65625 194.738281 245.554688 193.648438 244.222656 191.855469 C 243.488281 198.578125 240.945312 204.859375 236.792969 210.195312 C 237.105469 210.148438 237.425781 210.128906 237.75 210.128906 C 239.667969 210.128906 241.476562 210.882812 242.835938 212.242188 C 244.191406 213.601562 244.941406 215.40625 244.941406 217.316406 C 244.941406 219.238281 244.191406 221.039062 242.835938 222.402344 C 241.476562 223.761719 239.671875 224.507812 237.757812 224.507812 C 235.839844 224.507812 234.035156 223.761719 232.671875 222.402344 C 231.078125 220.8125 230.351562 218.589844 230.628906 216.417969 C 225.359375 220.617188 219.136719 223.242188 212.476562 224.0625 C 214.199219 225.414062 215.25 227.496094 215.25 229.734375 C 215.25 233.691406 212.027344 236.914062 208.0625 236.914062 C 204.101562 236.914062 200.878906 233.691406 200.878906 229.734375 C 200.878906 227.507812 201.914062 225.441406 203.621094 224.09375 C 196.945312 223.308594 190.710938 220.734375 185.421875 216.582031 C 185.710938 218.765625 184.980469 220.992188 183.375 222.597656 C 182.019531 223.957031 180.214844 224.699219 178.292969 224.699219 C 176.371094 224.699219 174.570312 223.957031 173.214844 222.597656 C 171.851562 221.242188 171.105469 219.441406 171.105469 217.519531 C 171.105469 215.601562 171.851562 213.796875 173.214844 212.433594 C 174.570312 211.074219 176.371094 210.332031 178.292969 210.332031 C 178.601562 210.332031 178.917969 210.351562 179.222656 210.390625 C 175.027344 205.074219 172.4375 198.800781 171.660156 192.085938 C 170.328125 193.898438 168.214844 195.007812 165.882812 195.007812 C 161.917969 195.007812 158.695312 191.785156 158.695312 187.820312 C 158.695312 183.863281 161.917969 180.640625 165.882812 180.640625 C 168.214844 180.640625 170.328125 181.75 171.660156 183.566406 C 172.441406 176.78125 175.078125 170.460938 179.355469 165.09375 C 178.925781 165.171875 178.492188 165.222656 178.058594 165.222656 C 176.152344 165.222656 174.359375 164.476562 173.015625 163.136719 C 170.222656 160.328125 170.222656 155.773438 173.015625 152.96875 C 174.378906 151.605469 176.179688 150.863281 178.097656 150.863281 C 180.015625 150.863281 181.820312 151.605469 183.179688 152.96875 C 184.863281 154.65625 185.5625 157.019531 185.15625 159.296875 C 190.539062 154.972656 196.898438 152.320312 203.738281 151.546875 C 201.804688 150.234375 200.601562 148.054688 200.601562 145.644531 C 200.601562 141.675781 203.824219 138.453125 207.789062 138.453125 C 211.75 138.453125 214.976562 141.675781 214.976562 145.644531 C 214.976562 148.035156 213.785156 150.207031 211.875 151.519531 C 218.730469 152.253906 225.109375 154.867188 230.515625 159.144531 C 230.085938 156.855469 230.785156 154.472656 232.480469 152.773438 C 233.835938 151.414062 235.640625 150.671875 237.558594 150.671875 C 239.480469 150.671875 241.28125 151.414062 242.640625 152.773438 C 244 154.125 244.746094 155.929688 244.746094 157.851562 C 244.746094 159.769531 244 161.574219 242.640625 162.933594 C 241.292969 164.285156 239.503906 165.03125 237.59375 165.03125 C 237.179688 165.03125 236.757812 164.988281 236.347656 164.921875 C 240.667969 170.25 243.34375 176.550781 244.175781 183.324219 C 245.496094 181.480469 247.625 180.359375 249.972656 180.359375 C 253.933594 180.359375 257.15625 183.582031 257.15625 187.550781 C 257.15625 191.515625 253.933594 194.738281 249.972656 194.738281 Z M 207.925781 153.707031 C 189.117188 153.707031 173.816406 169.007812 173.816406 187.820312 C 173.816406 206.628906 189.117188 221.933594 207.925781 221.933594 C 226.738281 221.933594 242.039062 206.628906 242.039062 187.820312 C 242.039062 169.007812 226.738281 153.707031 207.925781 153.707031 Z M 207.925781 207.671875 C 196.980469 207.671875 188.074219 198.765625 188.074219 187.820312 C 188.074219 176.875 196.980469 167.96875 207.925781 167.96875 C 218.875 167.96875 227.777344 176.875 227.777344 187.820312 C 227.777344 198.765625 218.875 207.671875 207.925781 207.671875 Z M 207.925781 207.671875 " fill-opacity="1" fill-rule="nonzero"/></g></svg>