<svg xmlns="http://www.w3.org/2000/svg" xmlns:xlink="http://www.w3.org/1999/xlink" width="260" zoomAndPan="magnify" viewBox="0 0 194.87999 52.499999" height="70" preserveAspectRatio="xMidYMid meet" version="1.0"><defs><g/><clipPath id="7662e58a23"><path d="M 0.859375 0 L 193.902344 0 L 193.902344 52.003906 L 0.859375 52.003906 Z M 0.859375 0 " clip-rule="nonzero"/></clipPath><clipPath id="98a5a71d33"><path d="M 18.324219 1.566406 L 62.15625 1.566406 L 62.15625 50.597656 L 18.324219 50.597656 Z M 18.324219 1.566406 " clip-rule="nonzero"/></clipPath><clipPath id="b885dc070a"><path d="M 34.265625 16.867188 L 52.839844 16.867188 L 52.839844 35.441406 L 34.265625 35.441406 Z M 34.265625 16.867188 " clip-rule="nonzero"/></clipPath></defs><g clip-path="url(#7662e58a23)"><path fill="#ffffff" d="M 0.859375 0 L 194.019531 0 L 194.019531 52.003906 L 0.859375 52.003906 Z M 0.859375 0 " fill-opacity="1" fill-rule="nonzero"/><path fill="#ffffff" d="M 0.859375 0 L 194.019531 0 L 194.019531 52.003906 L 0.859375 52.003906 Z M 0.859375 0 " fill-opacity="1" fill-rule="nonzero"/></g><g clip-path="url(#98a5a71d33)"><path fill="#0097b2" d="M 42.871094 50.554688 C 29.335938 50.554688 18.324219 39.578125 18.324219 26.082031 C 18.324219 12.585938 29.335938 1.605469 42.871094 1.605469 C 49.695312 1.605469 56.265625 4.472656 60.898438 9.46875 L 62.15625 10.824219 L 52.648438 19.585938 L 51.394531 18.234375 C 49.171875 15.835938 46.144531 14.515625 42.871094 14.515625 C 36.476562 14.515625 31.269531 19.703125 31.269531 26.082031 C 31.269531 29.53125 32.804688 32.777344 35.484375 34.988281 L 33.121094 37.828125 C 29.59375 34.914062 27.570312 30.632812 27.570312 26.082031 C 27.570312 17.671875 34.4375 10.828125 42.871094 10.828125 C 46.5625 10.828125 50.015625 12.101562 52.773438 14.449219 L 56.867188 10.675781 C 53.054688 7.238281 48.046875 5.296875 42.871094 5.296875 C 31.375 5.296875 22.023438 14.617188 22.023438 26.082031 C 22.023438 37.542969 31.375 46.867188 42.871094 46.867188 C 47.261719 46.867188 51.460938 45.523438 55.019531 42.976562 C 55.972656 42.292969 56.875 41.523438 57.707031 40.6875 L 60.335938 43.277344 C 59.363281 44.265625 58.296875 45.171875 57.175781 45.972656 C 52.988281 48.96875 48.042969 50.554688 42.871094 50.554688 " fill-opacity="1" fill-rule="nonzero"/></g><g clip-path="url(#b885dc070a)"><path fill="#0097b2" d="M 43.554688 16.867188 C 38.433594 16.867188 34.265625 21.035156 34.265625 26.15625 C 34.265625 31.273438 38.433594 35.441406 43.554688 35.441406 C 48.675781 35.441406 52.839844 31.273438 52.839844 26.15625 C 52.839844 21.035156 48.675781 16.867188 43.554688 16.867188 Z M 50.496094 27.320312 C 50.113281 27.320312 49.765625 27.140625 49.546875 26.84375 C 49.425781 27.953125 49.003906 28.992188 48.320312 29.871094 C 48.371094 29.863281 48.421875 29.859375 48.476562 29.859375 C 48.792969 29.859375 49.09375 29.984375 49.316406 30.210938 C 49.539062 30.433594 49.664062 30.730469 49.664062 31.046875 C 49.664062 31.363281 49.539062 31.660156 49.316406 31.886719 C 49.09375 32.109375 48.792969 32.234375 48.476562 32.234375 C 48.160156 32.234375 47.863281 32.109375 47.636719 31.886719 C 47.375 31.625 47.253906 31.257812 47.300781 30.898438 C 46.429688 31.59375 45.402344 32.023438 44.304688 32.160156 C 44.589844 32.382812 44.761719 32.726562 44.761719 33.097656 C 44.761719 33.75 44.230469 34.28125 43.574219 34.28125 C 42.921875 34.28125 42.390625 33.75 42.390625 33.097656 C 42.390625 32.730469 42.5625 32.386719 42.84375 32.164062 C 41.742188 32.035156 40.710938 31.609375 39.835938 30.925781 C 39.886719 31.285156 39.765625 31.652344 39.5 31.917969 C 39.277344 32.144531 38.976562 32.265625 38.660156 32.265625 C 38.34375 32.265625 38.046875 32.144531 37.824219 31.917969 C 37.597656 31.695312 37.472656 31.398438 37.472656 31.082031 C 37.472656 30.761719 37.597656 30.464844 37.824219 30.242188 C 38.046875 30.015625 38.34375 29.894531 38.660156 29.894531 C 38.710938 29.894531 38.765625 29.898438 38.8125 29.902344 C 38.121094 29.027344 37.695312 27.988281 37.566406 26.882812 C 37.347656 27.179688 36.996094 27.363281 36.613281 27.363281 C 35.957031 27.363281 35.425781 26.832031 35.425781 26.175781 C 35.425781 25.523438 35.957031 24.992188 36.613281 24.992188 C 36.996094 24.992188 37.347656 25.175781 37.566406 25.476562 C 37.695312 24.355469 38.128906 23.3125 38.835938 22.425781 C 38.765625 22.4375 38.695312 22.445312 38.621094 22.445312 C 38.308594 22.445312 38.011719 22.324219 37.789062 22.101562 C 37.328125 21.636719 37.328125 20.886719 37.789062 20.421875 C 38.015625 20.199219 38.3125 20.074219 38.628906 20.074219 C 38.945312 20.074219 39.242188 20.199219 39.46875 20.421875 C 39.746094 20.703125 39.859375 21.09375 39.792969 21.46875 C 40.683594 20.753906 41.730469 20.316406 42.863281 20.1875 C 42.542969 19.972656 42.34375 19.613281 42.34375 19.214844 C 42.34375 18.558594 42.875 18.027344 43.53125 18.027344 C 44.183594 18.027344 44.71875 18.558594 44.71875 19.214844 C 44.71875 19.609375 44.519531 19.96875 44.203125 20.183594 C 45.335938 20.304688 46.390625 20.738281 47.28125 21.441406 C 47.210938 21.066406 47.328125 20.671875 47.605469 20.390625 C 47.832031 20.167969 48.128906 20.042969 48.445312 20.042969 C 48.761719 20.042969 49.058594 20.167969 49.285156 20.390625 C 49.507812 20.613281 49.632812 20.910156 49.632812 21.230469 C 49.632812 21.546875 49.507812 21.84375 49.285156 22.070312 C 49.0625 22.292969 48.765625 22.414062 48.449219 22.414062 C 48.382812 22.414062 48.3125 22.40625 48.246094 22.398438 C 48.957031 23.277344 49.402344 24.316406 49.539062 25.433594 C 49.753906 25.128906 50.105469 24.945312 50.496094 24.945312 C 51.148438 24.945312 51.679688 25.476562 51.679688 26.132812 C 51.679688 26.789062 51.148438 27.320312 50.496094 27.320312 Z M 43.554688 20.546875 C 40.449219 20.546875 37.921875 23.070312 37.921875 26.175781 C 37.921875 29.28125 40.449219 31.808594 43.554688 31.808594 C 46.660156 31.808594 49.183594 29.28125 49.183594 26.175781 C 49.183594 23.070312 46.660156 20.546875 43.554688 20.546875 Z M 43.554688 29.453125 C 41.746094 29.453125 40.277344 27.984375 40.277344 26.175781 C 40.277344 24.371094 41.746094 22.898438 43.554688 22.898438 C 45.359375 22.898438 46.832031 24.371094 46.832031 26.175781 C 46.832031 27.984375 45.359375 29.453125 43.554688 29.453125 Z M 43.554688 29.453125 " fill-opacity="1" fill-rule="nonzero"/></g><g fill="#0097b2" fill-opacity="1"><g transform="translate(56.435181, 31.743726)"><g><path d="M 7.609375 -2.59375 C 8.035156 -2.59375 8.453125 -2.65625 8.859375 -2.78125 C 9.273438 -2.914062 9.582031 -3.046875 9.78125 -3.171875 L 10.0625 -3.359375 L 11.28125 -0.921875 C 11.25 -0.898438 11.195312 -0.863281 11.125 -0.8125 C 11.050781 -0.757812 10.882812 -0.660156 10.625 -0.515625 C 10.363281 -0.378906 10.085938 -0.257812 9.796875 -0.15625 C 9.503906 -0.0625 9.117188 0.0234375 8.640625 0.109375 C 8.160156 0.191406 7.664062 0.234375 7.15625 0.234375 C 5.988281 0.234375 4.878906 -0.0507812 3.828125 -0.625 C 2.785156 -1.207031 1.941406 -2 1.296875 -3 C 0.660156 -4.007812 0.34375 -5.097656 0.34375 -6.265625 C 0.34375 -7.148438 0.53125 -8 0.90625 -8.8125 C 1.289062 -9.625 1.796875 -10.316406 2.421875 -10.890625 C 3.046875 -11.472656 3.769531 -11.9375 4.59375 -12.28125 C 5.425781 -12.625 6.28125 -12.796875 7.15625 -12.796875 C 7.96875 -12.796875 8.71875 -12.695312 9.40625 -12.5 C 10.09375 -12.3125 10.578125 -12.117188 10.859375 -11.921875 L 11.28125 -11.640625 L 10.0625 -9.203125 C 10 -9.265625 9.894531 -9.335938 9.75 -9.421875 C 9.601562 -9.503906 9.316406 -9.617188 8.890625 -9.765625 C 8.460938 -9.910156 8.035156 -9.984375 7.609375 -9.984375 C 6.910156 -9.984375 6.285156 -9.867188 5.734375 -9.640625 C 5.191406 -9.421875 4.757812 -9.128906 4.4375 -8.765625 C 4.125 -8.398438 3.878906 -8.003906 3.703125 -7.578125 C 3.535156 -7.160156 3.453125 -6.734375 3.453125 -6.296875 C 3.453125 -5.335938 3.8125 -4.476562 4.53125 -3.71875 C 5.25 -2.96875 6.273438 -2.59375 7.609375 -2.59375 Z M 7.609375 -2.59375 "/></g></g></g><g fill="#0097b2" fill-opacity="1"><g transform="translate(67.910198, 31.743726)"><g><path d="M 7.296875 -12.5625 L 12.375 0 L 9.296875 0 L 8.359375 -2.515625 L 3.578125 -2.515625 L 2.65625 0 L -0.421875 0 L 4.640625 -12.5625 Z M 7.390625 -5.03125 L 5.984375 -8.6875 L 5.953125 -8.6875 L 4.5625 -5.03125 Z M 7.390625 -5.03125 "/></g></g></g><g fill="#0097b2" fill-opacity="1"><g transform="translate(79.857631, 31.743726)"><g><path d="M 3.78125 -12.5625 L 3.78125 -2.515625 L 8.109375 -2.515625 L 8.109375 0 L 0.921875 0 L 0.921875 -12.5625 Z M 3.78125 -12.5625 "/></g></g></g><g fill="#0097b2" fill-opacity="1"><g transform="translate(88.467703, 31.743726)"><g><path d="M 3.78125 -12.5625 L 3.78125 0 L 0.921875 0 L 0.921875 -12.5625 Z M 3.78125 -12.5625 "/></g></g></g><g fill="#0097b2" fill-opacity="1"><g transform="translate(93.161335, 31.743726)"><g><path d="M 7.609375 -2.59375 C 8.035156 -2.59375 8.453125 -2.65625 8.859375 -2.78125 C 9.273438 -2.914062 9.582031 -3.046875 9.78125 -3.171875 L 10.0625 -3.359375 L 11.28125 -0.921875 C 11.25 -0.898438 11.195312 -0.863281 11.125 -0.8125 C 11.050781 -0.757812 10.882812 -0.660156 10.625 -0.515625 C 10.363281 -0.378906 10.085938 -0.257812 9.796875 -0.15625 C 9.503906 -0.0625 9.117188 0.0234375 8.640625 0.109375 C 8.160156 0.191406 7.664062 0.234375 7.15625 0.234375 C 5.988281 0.234375 4.878906 -0.0507812 3.828125 -0.625 C 2.785156 -1.207031 1.941406 -2 1.296875 -3 C 0.660156 -4.007812 0.34375 -5.097656 0.34375 -6.265625 C 0.34375 -7.148438 0.53125 -8 0.90625 -8.8125 C 1.289062 -9.625 1.796875 -10.316406 2.421875 -10.890625 C 3.046875 -11.472656 3.769531 -11.9375 4.59375 -12.28125 C 5.425781 -12.625 6.28125 -12.796875 7.15625 -12.796875 C 7.96875 -12.796875 8.71875 -12.695312 9.40625 -12.5 C 10.09375 -12.3125 10.578125 -12.117188 10.859375 -11.921875 L 11.28125 -11.640625 L 10.0625 -9.203125 C 10 -9.265625 9.894531 -9.335938 9.75 -9.421875 C 9.601562 -9.503906 9.316406 -9.617188 8.890625 -9.765625 C 8.460938 -9.910156 8.035156 -9.984375 7.609375 -9.984375 C 6.910156 -9.984375 6.285156 -9.867188 5.734375 -9.640625 C 5.191406 -9.421875 4.757812 -9.128906 4.4375 -8.765625 C 4.125 -8.398438 3.878906 -8.003906 3.703125 -7.578125 C 3.535156 -7.160156 3.453125 -6.734375 3.453125 -6.296875 C 3.453125 -5.335938 3.8125 -4.476562 4.53125 -3.71875 C 5.25 -2.96875 6.273438 -2.59375 7.609375 -2.59375 Z M 7.609375 -2.59375 "/></g></g></g><g fill="#0097b2" fill-opacity="1"><g transform="translate(104.636352, 31.743726)"><g><path d="M 0.34375 -6.296875 C 0.34375 -8.109375 0.960938 -9.644531 2.203125 -10.90625 C 3.441406 -12.164062 4.9375 -12.796875 6.6875 -12.796875 C 8.445312 -12.796875 9.941406 -12.164062 11.171875 -10.90625 C 12.398438 -9.65625 13.015625 -8.117188 13.015625 -6.296875 C 13.015625 -4.453125 12.410156 -2.898438 11.203125 -1.640625 C 9.992188 -0.390625 8.488281 0.234375 6.6875 0.234375 C 4.851562 0.234375 3.335938 -0.382812 2.140625 -1.625 C 0.941406 -2.875 0.34375 -4.429688 0.34375 -6.296875 Z M 3.4375 -6.296875 C 3.4375 -5.628906 3.535156 -5.023438 3.734375 -4.484375 C 3.941406 -3.941406 4.300781 -3.484375 4.8125 -3.109375 C 5.320312 -2.734375 5.945312 -2.546875 6.6875 -2.546875 C 7.75 -2.546875 8.550781 -2.910156 9.09375 -3.640625 C 9.644531 -4.367188 9.921875 -5.253906 9.921875 -6.296875 C 9.921875 -7.316406 9.640625 -8.195312 9.078125 -8.9375 C 8.523438 -9.675781 7.726562 -10.046875 6.6875 -10.046875 C 5.65625 -10.046875 4.851562 -9.675781 4.28125 -8.9375 C 3.71875 -8.195312 3.4375 -7.316406 3.4375 -6.296875 Z M 3.4375 -6.296875 "/></g></g></g><g fill="#0097b2" fill-opacity="1"><g transform="translate(122.161286, 31.743726)"><g><path d="M 11.296875 0 L 10.703125 -7.453125 L 10.640625 -7.453125 L 8.0625 -0.078125 L 6.359375 -0.078125 L 3.78125 -7.453125 L 3.703125 -7.453125 L 3.109375 0 L 0.25 0 L 1.375 -12.5625 L 4.421875 -12.5625 L 7.203125 -5.3125 L 10 -12.5625 L 13.046875 -12.5625 L 14.171875 0 Z M 11.296875 0 "/></g></g></g><g fill="#0097b2" fill-opacity="1"><g transform="translate(136.577449, 31.743726)"><g><path d="M 8.109375 -12.5625 L 8.109375 -10.0625 L 3.78125 -10.0625 L 3.78125 -7.5625 L 7.921875 -7.5625 L 7.921875 -5.046875 L 3.78125 -5.046875 L 3.78125 -2.515625 L 8.109375 -2.515625 L 8.109375 0 L 0.921875 0 L 0.921875 -12.5625 Z M 8.109375 -12.5625 "/></g></g></g><g fill="#0097b2" fill-opacity="1"><g transform="translate(145.41611, 31.743726)"><g><path d="M 0.125 -10.0625 L 0.125 -12.5625 L 8.953125 -12.5625 L 8.953125 -10.0625 L 5.96875 -10.0625 L 5.96875 0 L 3.109375 0 L 3.109375 -10.0625 Z M 0.125 -10.0625 "/></g></g></g><g fill="#0097b2" fill-opacity="1"><g transform="translate(154.498598, 31.743726)"><g><path d="M 7.296875 -12.5625 L 12.375 0 L 9.296875 0 L 8.359375 -2.515625 L 3.578125 -2.515625 L 2.65625 0 L -0.421875 0 L 4.640625 -12.5625 Z M 7.390625 -5.03125 L 5.984375 -8.6875 L 5.953125 -8.6875 L 4.5625 -5.03125 Z M 7.390625 -5.03125 "/></g></g></g><g fill="#0097b2" fill-opacity="1"><g transform="translate(166.446031, 31.743726)"><g><path d="M 3.78125 -12.5625 L 3.78125 -2.515625 L 8.109375 -2.515625 L 8.109375 0 L 0.921875 0 L 0.921875 -12.5625 Z M 3.78125 -12.5625 "/></g></g></g><g fill="#737373" fill-opacity="1"><g transform="translate(75.735367, 41.17554)"><g><path d="M 1.3125 0 L 0.578125 0 L 0.578125 -4.375 L 1.3125 -4.375 Z M 1.3125 0 "/></g></g></g><g fill="#737373" fill-opacity="1"><g transform="translate(78.412777, 41.17554)"><g><path d="M 2.015625 -4.40625 C 2.578125 -4.40625 3.085938 -4.253906 3.546875 -3.953125 L 3.234375 -3.3125 C 2.785156 -3.582031 2.359375 -3.71875 1.953125 -3.71875 C 1.734375 -3.71875 1.5625 -3.675781 1.4375 -3.59375 C 1.3125 -3.507812 1.25 -3.394531 1.25 -3.25 C 1.25 -3.101562 1.304688 -2.976562 1.421875 -2.875 C 1.535156 -2.78125 1.679688 -2.707031 1.859375 -2.65625 C 2.035156 -2.613281 2.222656 -2.554688 2.421875 -2.484375 C 2.628906 -2.410156 2.816406 -2.332031 2.984375 -2.25 C 3.160156 -2.164062 3.304688 -2.035156 3.421875 -1.859375 C 3.535156 -1.691406 3.59375 -1.484375 3.59375 -1.234375 C 3.59375 -0.847656 3.441406 -0.539062 3.140625 -0.3125 C 2.835938 -0.0820312 2.441406 0.03125 1.953125 0.03125 C 1.617188 0.03125 1.296875 -0.03125 0.984375 -0.15625 C 0.671875 -0.28125 0.394531 -0.453125 0.15625 -0.671875 L 0.484375 -1.3125 C 0.703125 -1.101562 0.941406 -0.941406 1.203125 -0.828125 C 1.472656 -0.722656 1.726562 -0.671875 1.96875 -0.671875 C 2.21875 -0.671875 2.414062 -0.71875 2.5625 -0.8125 C 2.707031 -0.90625 2.78125 -1.035156 2.78125 -1.203125 C 2.78125 -1.347656 2.722656 -1.472656 2.609375 -1.578125 C 2.492188 -1.679688 2.347656 -1.753906 2.171875 -1.796875 C 1.992188 -1.847656 1.800781 -1.90625 1.59375 -1.96875 C 1.394531 -2.039062 1.207031 -2.113281 1.03125 -2.1875 C 0.851562 -2.269531 0.707031 -2.394531 0.59375 -2.5625 C 0.476562 -2.738281 0.421875 -2.945312 0.421875 -3.1875 C 0.421875 -3.5625 0.566406 -3.859375 0.859375 -4.078125 C 1.148438 -4.296875 1.535156 -4.40625 2.015625 -4.40625 Z M 2.015625 -4.40625 "/></g></g></g><g fill="#737373" fill-opacity="1"><g transform="translate(83.091746, 41.17554)"><g><path d="M 0.875 -3.75 C 1.320312 -4.175781 1.875 -4.390625 2.53125 -4.390625 C 3.1875 -4.390625 3.734375 -4.175781 4.171875 -3.75 C 4.617188 -3.332031 4.84375 -2.8125 4.84375 -2.1875 C 4.84375 -1.5625 4.617188 -1.035156 4.171875 -0.609375 C 3.734375 -0.179688 3.1875 0.03125 2.53125 0.03125 C 1.875 0.03125 1.320312 -0.179688 0.875 -0.609375 C 0.4375 -1.035156 0.21875 -1.5625 0.21875 -2.1875 C 0.21875 -2.8125 0.4375 -3.332031 0.875 -3.75 Z M 2.53125 -3.734375 C 2.101562 -3.734375 1.734375 -3.582031 1.421875 -3.28125 C 1.117188 -2.988281 0.96875 -2.625 0.96875 -2.1875 C 0.96875 -1.75 1.117188 -1.378906 1.421875 -1.078125 C 1.734375 -0.773438 2.101562 -0.625 2.53125 -0.625 C 2.96875 -0.625 3.335938 -0.773438 3.640625 -1.078125 C 3.941406 -1.378906 4.09375 -1.75 4.09375 -2.1875 C 4.09375 -2.625 3.941406 -2.988281 3.640625 -3.28125 C 3.335938 -3.582031 2.96875 -3.734375 2.53125 -3.734375 Z M 2.53125 -3.734375 "/></g></g></g><g fill="#737373" fill-opacity="1"><g transform="translate(88.946631, 41.17554)"><g/></g></g><g fill="#737373" fill-opacity="1"><g transform="translate(91.348824, 41.17554)"><g><path d="M 2.515625 -4.390625 C 2.816406 -4.390625 3.113281 -4.328125 3.40625 -4.203125 C 3.707031 -4.085938 3.960938 -3.925781 4.171875 -3.71875 L 3.75 -3.1875 C 3.582031 -3.351562 3.390625 -3.484375 3.171875 -3.578125 C 2.960938 -3.679688 2.75 -3.734375 2.53125 -3.734375 C 2.09375 -3.734375 1.722656 -3.582031 1.421875 -3.28125 C 1.117188 -2.988281 0.96875 -2.628906 0.96875 -2.203125 C 0.96875 -1.765625 1.117188 -1.394531 1.421875 -1.09375 C 1.722656 -0.800781 2.09375 -0.65625 2.53125 -0.65625 C 2.976562 -0.65625 3.382812 -0.828125 3.75 -1.171875 L 4.1875 -0.6875 C 3.957031 -0.46875 3.691406 -0.289062 3.390625 -0.15625 C 3.085938 -0.03125 2.785156 0.03125 2.484375 0.03125 C 1.847656 0.03125 1.3125 -0.179688 0.875 -0.609375 C 0.4375 -1.035156 0.21875 -1.5625 0.21875 -2.1875 C 0.21875 -2.8125 0.4375 -3.332031 0.875 -3.75 C 1.320312 -4.175781 1.867188 -4.390625 2.515625 -4.390625 Z M 2.515625 -4.390625 "/></g></g></g><g fill="#737373" fill-opacity="1"><g transform="translate(96.496909, 41.17554)"><g><path d="M 1.90625 -3.34375 C 2.46875 -3.34375 2.878906 -3.171875 3.140625 -2.828125 C 3.398438 -2.484375 3.503906 -2.003906 3.453125 -1.390625 L 0.9375 -1.390625 C 1 -1.128906 1.117188 -0.925781 1.296875 -0.78125 C 1.484375 -0.632812 1.707031 -0.5625 1.96875 -0.5625 C 2.34375 -0.5625 2.65625 -0.6875 2.90625 -0.9375 L 3.296875 -0.53125 C 2.953125 -0.15625 2.492188 0.03125 1.921875 0.03125 C 1.410156 0.03125 1 -0.125 0.6875 -0.4375 C 0.375 -0.75 0.21875 -1.15625 0.21875 -1.65625 C 0.21875 -2.15625 0.375 -2.5625 0.6875 -2.875 C 1 -3.1875 1.40625 -3.34375 1.90625 -3.34375 Z M 0.9375 -1.90625 L 2.828125 -1.90625 C 2.816406 -2.175781 2.726562 -2.390625 2.5625 -2.546875 C 2.394531 -2.703125 2.175781 -2.78125 1.90625 -2.78125 C 1.644531 -2.78125 1.425781 -2.703125 1.25 -2.546875 C 1.082031 -2.390625 0.976562 -2.175781 0.9375 -1.90625 Z M 0.9375 -1.90625 "/></g></g></g><g fill="#737373" fill-opacity="1"><g transform="translate(100.963213, 41.17554)"><g><path d="M 1.25 -3.328125 L 1.25 -2.65625 C 1.476562 -3.113281 1.863281 -3.34375 2.40625 -3.34375 L 2.40625 -2.65625 C 2.070312 -2.675781 1.800781 -2.597656 1.59375 -2.421875 C 1.394531 -2.253906 1.28125 -2.023438 1.25 -1.734375 L 1.25 0 L 0.53125 0 L 0.53125 -3.328125 Z M 1.25 -3.328125 "/></g></g></g><g fill="#737373" fill-opacity="1"><g transform="translate(104.216071, 41.17554)"><g><path d="M 2.234375 -0.765625 L 2.40625 -0.21875 C 2.132812 -0.0507812 1.863281 0.03125 1.59375 0.03125 C 1.320312 0.03125 1.097656 -0.046875 0.921875 -0.203125 C 0.742188 -0.367188 0.65625 -0.613281 0.65625 -0.9375 L 0.65625 -2.65625 L 0.1875 -2.65625 L 0.1875 -3.203125 L 0.65625 -3.203125 L 0.65625 -4.109375 L 1.375 -4.109375 L 1.375 -3.203125 L 2.359375 -3.203125 L 2.359375 -2.65625 L 1.375 -2.65625 L 1.375 -1.0625 C 1.375 -0.894531 1.398438 -0.78125 1.453125 -0.71875 C 1.515625 -0.65625 1.609375 -0.625 1.734375 -0.625 C 1.867188 -0.625 2.035156 -0.671875 2.234375 -0.765625 Z M 2.234375 -0.765625 "/></g></g></g><g fill="#737373" fill-opacity="1"><g transform="translate(107.550242, 41.17554)"><g><path d="M 0.578125 -4.59375 C 0.660156 -4.675781 0.757812 -4.71875 0.875 -4.71875 C 1 -4.71875 1.101562 -4.675781 1.1875 -4.59375 C 1.269531 -4.507812 1.3125 -4.40625 1.3125 -4.28125 C 1.3125 -4.15625 1.269531 -4.050781 1.1875 -3.96875 C 1.101562 -3.882812 1 -3.84375 0.875 -3.84375 C 0.757812 -3.84375 0.660156 -3.882812 0.578125 -3.96875 C 0.503906 -4.050781 0.46875 -4.15625 0.46875 -4.28125 C 0.46875 -4.40625 0.503906 -4.507812 0.578125 -4.59375 Z M 1.25 0 L 0.53125 0 L 0.53125 -3.328125 L 1.25 -3.328125 Z M 1.25 0 "/></g></g></g><g fill="#737373" fill-opacity="1"><g transform="translate(110.115062, 41.17554)"><g><path d="M 1.828125 -4.046875 C 1.703125 -4.046875 1.59375 -4.003906 1.5 -3.921875 C 1.414062 -3.847656 1.375 -3.738281 1.375 -3.59375 L 1.375 -3.203125 L 2.25 -3.203125 L 2.25 -2.65625 L 1.375 -2.65625 L 1.375 0 L 0.671875 0 L 0.671875 -2.65625 L 0.234375 -2.65625 L 0.234375 -3.203125 L 0.671875 -3.203125 L 0.671875 -3.53125 C 0.671875 -3.894531 0.78125 -4.175781 1 -4.375 C 1.226562 -4.570312 1.5 -4.671875 1.8125 -4.671875 C 2.101562 -4.671875 2.351562 -4.59375 2.5625 -4.4375 L 2.28125 -3.890625 C 2.144531 -3.992188 1.992188 -4.046875 1.828125 -4.046875 Z M 1.828125 -4.046875 "/></g></g></g><g fill="#737373" fill-opacity="1"><g transform="translate(113.048921, 41.17554)"><g><path d="M 0.578125 -4.59375 C 0.660156 -4.675781 0.757812 -4.71875 0.875 -4.71875 C 1 -4.71875 1.101562 -4.675781 1.1875 -4.59375 C 1.269531 -4.507812 1.3125 -4.40625 1.3125 -4.28125 C 1.3125 -4.15625 1.269531 -4.050781 1.1875 -3.96875 C 1.101562 -3.882812 1 -3.84375 0.875 -3.84375 C 0.757812 -3.84375 0.660156 -3.882812 0.578125 -3.96875 C 0.503906 -4.050781 0.46875 -4.15625 0.46875 -4.28125 C 0.46875 -4.40625 0.503906 -4.507812 0.578125 -4.59375 Z M 1.25 0 L 0.53125 0 L 0.53125 -3.328125 L 1.25 -3.328125 Z M 1.25 0 "/></g></g></g><g fill="#737373" fill-opacity="1"><g transform="translate(115.61374, 41.17554)"><g><path d="M 1.90625 -3.34375 C 2.46875 -3.34375 2.878906 -3.171875 3.140625 -2.828125 C 3.398438 -2.484375 3.503906 -2.003906 3.453125 -1.390625 L 0.9375 -1.390625 C 1 -1.128906 1.117188 -0.925781 1.296875 -0.78125 C 1.484375 -0.632812 1.707031 -0.5625 1.96875 -0.5625 C 2.34375 -0.5625 2.65625 -0.6875 2.90625 -0.9375 L 3.296875 -0.53125 C 2.953125 -0.15625 2.492188 0.03125 1.921875 0.03125 C 1.410156 0.03125 1 -0.125 0.6875 -0.4375 C 0.375 -0.75 0.21875 -1.15625 0.21875 -1.65625 C 0.21875 -2.15625 0.375 -2.5625 0.6875 -2.875 C 1 -3.1875 1.40625 -3.34375 1.90625 -3.34375 Z M 0.9375 -1.90625 L 2.828125 -1.90625 C 2.816406 -2.175781 2.726562 -2.390625 2.5625 -2.546875 C 2.394531 -2.703125 2.175781 -2.78125 1.90625 -2.78125 C 1.644531 -2.78125 1.425781 -2.703125 1.25 -2.546875 C 1.082031 -2.390625 0.976562 -2.175781 0.9375 -1.90625 Z M 0.9375 -1.90625 "/></g></g></g><g fill="#737373" fill-opacity="1"><g transform="translate(120.080044, 41.17554)"><g><path d="M 3.703125 -4.640625 L 3.703125 0 L 2.984375 0 L 2.984375 -0.5625 C 2.734375 -0.164062 2.34375 0.03125 1.8125 0.03125 C 1.332031 0.03125 0.945312 -0.125 0.65625 -0.4375 C 0.363281 -0.75 0.21875 -1.160156 0.21875 -1.671875 C 0.21875 -2.171875 0.363281 -2.578125 0.65625 -2.890625 C 0.945312 -3.203125 1.328125 -3.359375 1.796875 -3.359375 C 2.328125 -3.359375 2.722656 -3.15625 2.984375 -2.75 L 2.984375 -4.640625 Z M 1.21875 -0.859375 C 1.414062 -0.660156 1.660156 -0.5625 1.953125 -0.5625 C 2.253906 -0.5625 2.5 -0.660156 2.6875 -0.859375 C 2.882812 -1.066406 2.984375 -1.332031 2.984375 -1.65625 C 2.984375 -1.96875 2.882812 -2.226562 2.6875 -2.4375 C 2.5 -2.644531 2.253906 -2.75 1.953125 -2.75 C 1.660156 -2.75 1.414062 -2.644531 1.21875 -2.4375 C 1.03125 -2.226562 0.9375 -1.96875 0.9375 -1.65625 C 0.9375 -1.332031 1.03125 -1.066406 1.21875 -0.859375 Z M 1.21875 -0.859375 "/></g></g></g><g fill="#737373" fill-opacity="1"><g transform="translate(125.134306, 41.17554)"><g/></g></g><g fill="#737373" fill-opacity="1"><g transform="translate(127.5365, 41.17554)"><g><path d="M 5.203125 0 L 4.515625 0 L 4.515625 -3.265625 L 3.125 -0.453125 L 2.65625 -0.453125 L 1.265625 -3.265625 L 1.265625 0 L 0.578125 0 L 0.578125 -4.375 L 1.453125 -4.375 L 2.890625 -1.46875 L 4.328125 -4.375 L 5.203125 -4.375 Z M 5.203125 0 "/></g></g></g><g fill="#737373" fill-opacity="1"><g transform="translate(134.110697, 41.17554)"><g><path d="M 1.90625 -3.34375 C 2.46875 -3.34375 2.878906 -3.171875 3.140625 -2.828125 C 3.398438 -2.484375 3.503906 -2.003906 3.453125 -1.390625 L 0.9375 -1.390625 C 1 -1.128906 1.117188 -0.925781 1.296875 -0.78125 C 1.484375 -0.632812 1.707031 -0.5625 1.96875 -0.5625 C 2.34375 -0.5625 2.65625 -0.6875 2.90625 -0.9375 L 3.296875 -0.53125 C 2.953125 -0.15625 2.492188 0.03125 1.921875 0.03125 C 1.410156 0.03125 1 -0.125 0.6875 -0.4375 C 0.375 -0.75 0.21875 -1.15625 0.21875 -1.65625 C 0.21875 -2.15625 0.375 -2.5625 0.6875 -2.875 C 1 -3.1875 1.40625 -3.34375 1.90625 -3.34375 Z M 0.9375 -1.90625 L 2.828125 -1.90625 C 2.816406 -2.175781 2.726562 -2.390625 2.5625 -2.546875 C 2.394531 -2.703125 2.175781 -2.78125 1.90625 -2.78125 C 1.644531 -2.78125 1.425781 -2.703125 1.25 -2.546875 C 1.082031 -2.390625 0.976562 -2.175781 0.9375 -1.90625 Z M 0.9375 -1.90625 "/></g></g></g><g fill="#737373" fill-opacity="1"><g transform="translate(138.576997, 41.17554)"><g><path d="M 2.234375 -0.765625 L 2.40625 -0.21875 C 2.132812 -0.0507812 1.863281 0.03125 1.59375 0.03125 C 1.320312 0.03125 1.097656 -0.046875 0.921875 -0.203125 C 0.742188 -0.367188 0.65625 -0.613281 0.65625 -0.9375 L 0.65625 -2.65625 L 0.1875 -2.65625 L 0.1875 -3.203125 L 0.65625 -3.203125 L 0.65625 -4.109375 L 1.375 -4.109375 L 1.375 -3.203125 L 2.359375 -3.203125 L 2.359375 -2.65625 L 1.375 -2.65625 L 1.375 -1.0625 C 1.375 -0.894531 1.398438 -0.78125 1.453125 -0.71875 C 1.515625 -0.65625 1.609375 -0.625 1.734375 -0.625 C 1.867188 -0.625 2.035156 -0.671875 2.234375 -0.765625 Z M 2.234375 -0.765625 "/></g></g></g><g fill="#737373" fill-opacity="1"><g transform="translate(141.911168, 41.17554)"><g><path d="M 2.53125 0 L 2.53125 -0.40625 C 2.289062 -0.113281 1.921875 0.03125 1.421875 0.03125 C 1.066406 0.03125 0.78125 -0.0625 0.5625 -0.25 C 0.351562 -0.445312 0.25 -0.695312 0.25 -1 C 0.25 -1.300781 0.359375 -1.539062 0.578125 -1.71875 C 0.804688 -1.90625 1.117188 -2 1.515625 -2 L 2.515625 -2 L 2.515625 -2.09375 C 2.515625 -2.3125 2.445312 -2.476562 2.3125 -2.59375 C 2.175781 -2.707031 1.976562 -2.765625 1.71875 -2.765625 C 1.40625 -2.765625 1.082031 -2.65625 0.75 -2.4375 L 0.453125 -2.9375 C 0.703125 -3.082031 0.925781 -3.1875 1.125 -3.25 C 1.332031 -3.3125 1.582031 -3.34375 1.875 -3.34375 C 2.300781 -3.34375 2.628906 -3.238281 2.859375 -3.03125 C 3.097656 -2.832031 3.21875 -2.550781 3.21875 -2.1875 L 3.234375 0 Z M 1.578125 -0.53125 C 1.828125 -0.53125 2.039062 -0.585938 2.21875 -0.703125 C 2.394531 -0.828125 2.492188 -0.984375 2.515625 -1.171875 L 2.515625 -1.46875 L 1.625 -1.46875 C 1.382812 -1.46875 1.207031 -1.429688 1.09375 -1.359375 C 0.988281 -1.296875 0.9375 -1.1875 0.9375 -1.03125 C 0.9375 -0.882812 0.992188 -0.765625 1.109375 -0.671875 C 1.222656 -0.578125 1.378906 -0.53125 1.578125 -0.53125 Z M 1.578125 -0.53125 "/></g></g></g><g fill="#737373" fill-opacity="1"><g transform="translate(146.364962, 41.17554)"><g><path d="M 1.28125 0 L 0.5625 0 L 0.5625 -4.640625 L 1.28125 -4.640625 Z M 1.28125 0 "/></g></g></g><g fill="#737373" fill-opacity="1"><g transform="translate(151.400778, 41.17554)"><g><path d="M 4.375 0 L 3.625 0 L 3.625 -1.8125 L 1.3125 -1.8125 L 1.3125 0 L 0.578125 0 L 0.578125 -4.375 L 1.3125 -4.375 L 1.3125 -2.46875 L 3.625 -2.46875 L 3.625 -4.375 L 4.375 -4.375 Z M 4.375 0 "/></g></g></g><g fill="#737373" fill-opacity="1"><g transform="translate(157.13682, 41.17554)"><g><path d="M 1.953125 -3.34375 C 2.460938 -3.34375 2.878906 -3.1875 3.203125 -2.875 C 3.523438 -2.570312 3.6875 -2.164062 3.6875 -1.65625 C 3.6875 -1.15625 3.523438 -0.75 3.203125 -0.4375 C 2.878906 -0.125 2.460938 0.03125 1.953125 0.03125 C 1.441406 0.03125 1.023438 -0.125 0.703125 -0.4375 C 0.378906 -0.75 0.21875 -1.15625 0.21875 -1.65625 C 0.21875 -2.164062 0.378906 -2.570312 0.703125 -2.875 C 1.023438 -3.1875 1.441406 -3.34375 1.953125 -3.34375 Z M 1.953125 -2.734375 C 1.648438 -2.734375 1.40625 -2.628906 1.21875 -2.421875 C 1.03125 -2.222656 0.9375 -1.96875 0.9375 -1.65625 C 0.9375 -1.332031 1.03125 -1.070312 1.21875 -0.875 C 1.40625 -0.675781 1.648438 -0.578125 1.953125 -0.578125 C 2.253906 -0.578125 2.5 -0.675781 2.6875 -0.875 C 2.875 -1.070312 2.96875 -1.332031 2.96875 -1.65625 C 2.96875 -1.96875 2.875 -2.222656 2.6875 -2.421875 C 2.5 -2.628906 2.253906 -2.734375 1.953125 -2.734375 Z M 1.953125 -2.734375 "/></g></g></g><g fill="#737373" fill-opacity="1"><g transform="translate(161.834552, 41.17554)"><g><path d="M 3.546875 -3.328125 L 3.546875 0 L 2.828125 0 L 2.828125 -0.65625 C 2.609375 -0.207031 2.210938 0.0195312 1.640625 0.03125 C 1.265625 0.03125 0.96875 -0.0820312 0.75 -0.3125 C 0.53125 -0.539062 0.421875 -0.851562 0.421875 -1.25 L 0.421875 -3.328125 L 1.140625 -3.328125 L 1.140625 -1.453125 C 1.140625 -1.203125 1.207031 -1.003906 1.34375 -0.859375 C 1.488281 -0.722656 1.679688 -0.65625 1.921875 -0.65625 C 2.203125 -0.65625 2.421875 -0.75 2.578125 -0.9375 C 2.742188 -1.132812 2.828125 -1.382812 2.828125 -1.6875 L 2.828125 -3.328125 Z M 3.546875 -3.328125 "/></g></g></g><g fill="#737373" fill-opacity="1"><g transform="translate(166.70742, 41.17554)"><g><path d="M 1.53125 -3.359375 C 1.988281 -3.359375 2.375 -3.242188 2.6875 -3.015625 L 2.421875 -2.484375 C 2.109375 -2.679688 1.789062 -2.78125 1.46875 -2.78125 C 1.144531 -2.78125 0.984375 -2.671875 0.984375 -2.453125 C 0.984375 -2.335938 1.039062 -2.242188 1.15625 -2.171875 C 1.28125 -2.109375 1.425781 -2.050781 1.59375 -2 C 1.769531 -1.957031 1.941406 -1.898438 2.109375 -1.828125 C 2.285156 -1.765625 2.4375 -1.660156 2.5625 -1.515625 C 2.6875 -1.367188 2.75 -1.1875 2.75 -0.96875 C 2.75 -0.644531 2.625 -0.394531 2.375 -0.21875 C 2.132812 -0.0507812 1.832031 0.03125 1.46875 0.03125 C 1.21875 0.03125 0.972656 -0.0078125 0.734375 -0.09375 C 0.492188 -0.175781 0.289062 -0.289062 0.125 -0.4375 L 0.390625 -0.953125 C 0.523438 -0.828125 0.695312 -0.722656 0.90625 -0.640625 C 1.113281 -0.566406 1.3125 -0.53125 1.5 -0.53125 C 1.664062 -0.53125 1.796875 -0.5625 1.890625 -0.625 C 1.992188 -0.6875 2.046875 -0.773438 2.046875 -0.890625 C 2.046875 -1.015625 1.984375 -1.113281 1.859375 -1.1875 C 1.742188 -1.269531 1.597656 -1.332031 1.421875 -1.375 C 1.253906 -1.414062 1.082031 -1.46875 0.90625 -1.53125 C 0.738281 -1.59375 0.59375 -1.695312 0.46875 -1.84375 C 0.351562 -1.988281 0.296875 -2.171875 0.296875 -2.390625 C 0.296875 -2.710938 0.410156 -2.953125 0.640625 -3.109375 C 0.878906 -3.273438 1.175781 -3.359375 1.53125 -3.359375 Z M 1.53125 -3.359375 "/></g></g></g><g fill="#737373" fill-opacity="1"><g transform="translate(170.435644, 41.17554)"><g><path d="M 1.90625 -3.34375 C 2.46875 -3.34375 2.878906 -3.171875 3.140625 -2.828125 C 3.398438 -2.484375 3.503906 -2.003906 3.453125 -1.390625 L 0.9375 -1.390625 C 1 -1.128906 1.117188 -0.925781 1.296875 -0.78125 C 1.484375 -0.632812 1.707031 -0.5625 1.96875 -0.5625 C 2.34375 -0.5625 2.65625 -0.6875 2.90625 -0.9375 L 3.296875 -0.53125 C 2.953125 -0.15625 2.492188 0.03125 1.921875 0.03125 C 1.410156 0.03125 1 -0.125 0.6875 -0.4375 C 0.375 -0.75 0.21875 -1.15625 0.21875 -1.65625 C 0.21875 -2.15625 0.375 -2.5625 0.6875 -2.875 C 1 -3.1875 1.40625 -3.34375 1.90625 -3.34375 Z M 0.9375 -1.90625 L 2.828125 -1.90625 C 2.816406 -2.175781 2.726562 -2.390625 2.5625 -2.546875 C 2.394531 -2.703125 2.175781 -2.78125 1.90625 -2.78125 C 1.644531 -2.78125 1.425781 -2.703125 1.25 -2.546875 C 1.082031 -2.390625 0.976562 -2.175781 0.9375 -1.90625 Z M 0.9375 -1.90625 "/></g></g></g></svg>